<?xml version="1.0" encoding="utf-8" standalone="no"?>
<!DOCTYPE svg PUBLIC "-//W3C//DTD SVG 1.1//EN"
  "http://www.w3.org/Graphics/SVG/1.1/DTD/svg11.dtd">
<svg xmlns:xlink="http://www.w3.org/1999/xlink" width="728.39952pt" height="512.39952pt" viewBox="0 0 728.39952 512.39952" xmlns="http://www.w3.org/2000/svg" version="1.1">
 <metadata>
  <rdf:RDF xmlns:dc="http://purl.org/dc/elements/1.1/" xmlns:cc="http://creativecommons.org/ns#" xmlns:rdf="http://www.w3.org/1999/02/22-rdf-syntax-ns#">
   <cc:Work>
    <dc:type rdf:resource="http://purl.org/dc/dcmitype/StillImage"/>
    <dc:date>2023-12-20T00:59:15.850235</dc:date>
    <dc:format>image/svg+xml</dc:format>
    <dc:creator>
     <cc:Agent>
      <dc:title>Matplotlib v3.7.1, https://matplotlib.org/</dc:title>
     </cc:Agent>
    </dc:creator>
   </cc:Work>
  </rdf:RDF>
 </metadata>
 <defs>
  <style type="text/css">*{stroke-linejoin: round; stroke-linecap: butt}</style>
 </defs>
 <g id="figure_1">
  <g id="patch_1">
   <path d="M 0 512.39952 
L 728.39952 512.39952 
L 728.39952 0 
L 0 0 
z
" style="fill: #ffffff"/>
  </g>
  <g id="axes_1">
   <g id="patch_2">
    <path d="M 73.528563 460.662751 
L 663.915379 460.662751 
L 663.915379 7.2 
L 73.528563 7.2 
z
" style="fill: #ffffff"/>
   </g>
   <g id="matplotlib.axis_1">
    <g id="xtick_1">
     <g id="line2d_1">
      <defs>
       <path id="m71a73269e0" d="M 0 0 
L 0 -5 
" style="stroke: #000000; stroke-width: 1.2"/>
      </defs>
      <g>
       <use xlink:href="#m71a73269e0" x="87.585392" y="460.662751" style="stroke: #000000; stroke-width: 1.2"/>
      </g>
     </g>
     <g id="text_1">
      <!-- $\mathdefault{0}$ -->
      <g transform="translate(82.604072 477.171906) scale(0.2 -0.2)">
       <defs>
        <path id="NimbusRomNo9L-Regu-30" d="M 1626 4352 
C 1274 4352 1005 4243 768 4019 
C 397 3661 154 2924 154 2176 
C 154 1478 365 729 666 371 
C 902 89 1229 -64 1600 -64 
C 1926 -64 2202 44 2432 268 
C 2803 620 3046 1363 3046 2137 
C 3046 3449 2464 4352 1626 4352 
z
M 1606 4185 
C 2144 4185 2432 3462 2432 2124 
C 2432 787 2150 102 1600 102 
C 1050 102 768 787 768 2118 
C 768 3475 1056 4185 1606 4185 
z
" transform="scale(0.015625)"/>
       </defs>
       <use xlink:href="#NimbusRomNo9L-Regu-30" transform="scale(0.996264)"/>
      </g>
     </g>
    </g>
    <g id="xtick_2">
     <g id="line2d_2">
      <g>
       <use xlink:href="#m71a73269e0" x="228.153681" y="460.662751" style="stroke: #000000; stroke-width: 1.2"/>
      </g>
     </g>
     <g id="text_2">
      <!-- $\mathdefault{10}$ -->
      <g transform="translate(218.191041 477.171906) scale(0.2 -0.2)">
       <defs>
        <path id="NimbusRomNo9L-Regu-31" d="M 1862 4352 
L 710 3776 
L 710 3686 
C 787 3718 858 3743 883 3756 
C 998 3801 1107 3826 1171 3826 
C 1306 3826 1363 3731 1363 3525 
L 1363 599 
C 1363 386 1312 238 1210 179 
C 1114 121 1024 102 755 96 
L 755 0 
L 2522 0 
L 2522 96 
C 2016 102 1914 167 1914 477 
L 1914 4339 
L 1862 4352 
z
" transform="scale(0.015625)"/>
       </defs>
       <use xlink:href="#NimbusRomNo9L-Regu-31" transform="scale(0.996264)"/>
       <use xlink:href="#NimbusRomNo9L-Regu-30" transform="translate(49.8132 0) scale(0.996264)"/>
      </g>
     </g>
    </g>
    <g id="xtick_3">
     <g id="line2d_3">
      <g>
       <use xlink:href="#m71a73269e0" x="368.721971" y="460.662751" style="stroke: #000000; stroke-width: 1.2"/>
      </g>
     </g>
     <g id="text_3">
      <!-- $\mathdefault{20}$ -->
      <g transform="translate(358.759331 477.171906) scale(0.2 -0.2)">
       <defs>
        <path id="NimbusRomNo9L-Regu-32" d="M 3040 879 
L 2957 912 
C 2720 544 2637 486 2349 486 
L 819 486 
L 1894 1621 
C 2464 2221 2714 2711 2714 3214 
C 2714 3858 2195 4352 1530 4352 
C 1178 4352 845 4211 608 3955 
C 403 3736 307 3530 198 3072 
L 333 3039 
C 589 3671 819 3878 1261 3878 
C 1798 3878 2163 3510 2163 2969 
C 2163 2466 1869 1866 1331 1292 
L 192 76 
L 192 0 
L 2688 0 
L 3040 879 
z
" transform="scale(0.015625)"/>
       </defs>
       <use xlink:href="#NimbusRomNo9L-Regu-32" transform="scale(0.996264)"/>
       <use xlink:href="#NimbusRomNo9L-Regu-30" transform="translate(49.8132 0) scale(0.996264)"/>
      </g>
     </g>
    </g>
    <g id="xtick_4">
     <g id="line2d_4">
      <g>
       <use xlink:href="#m71a73269e0" x="509.290261" y="460.662751" style="stroke: #000000; stroke-width: 1.2"/>
      </g>
     </g>
     <g id="text_4">
      <!-- $\mathdefault{30}$ -->
      <g transform="translate(499.327621 477.171906) scale(0.2 -0.2)">
       <defs>
        <path id="NimbusRomNo9L-Regu-33" d="M 979 2137 
C 1357 2137 1504 2124 1658 2067 
C 2054 1926 2304 1561 2304 1120 
C 2304 582 1939 166 1466 166 
C 1293 166 1165 211 928 364 
C 736 480 627 524 518 524 
C 371 524 275 435 275 300 
C 275 76 550 -64 998 -64 
C 1491 -64 1997 102 2298 364 
C 2598 627 2765 998 2765 1427 
C 2765 1753 2662 2054 2477 2252 
C 2349 2393 2227 2470 1946 2592 
C 2387 2892 2547 3129 2547 3475 
C 2547 3993 2138 4352 1549 4352 
C 1229 4352 947 4243 717 4038 
C 525 3865 429 3699 288 3315 
L 384 3289 
C 646 3757 934 3967 1338 3967 
C 1754 3967 2042 3686 2042 3283 
C 2042 3052 1946 2822 1786 2662 
C 1594 2470 1414 2374 979 2220 
L 979 2137 
z
" transform="scale(0.015625)"/>
       </defs>
       <use xlink:href="#NimbusRomNo9L-Regu-33" transform="scale(0.996264)"/>
       <use xlink:href="#NimbusRomNo9L-Regu-30" transform="translate(49.8132 0) scale(0.996264)"/>
      </g>
     </g>
    </g>
    <g id="xtick_5">
     <g id="line2d_5">
      <g>
       <use xlink:href="#m71a73269e0" x="649.85855" y="460.662751" style="stroke: #000000; stroke-width: 1.2"/>
      </g>
     </g>
     <g id="text_5">
      <!-- $\mathdefault{40}$ -->
      <g transform="translate(639.89591 477.171906) scale(0.2 -0.2)">
       <defs>
        <path id="NimbusRomNo9L-Regu-34" d="M 3021 1497 
L 2368 1497 
L 2368 4352 
L 2086 4352 
L 77 1497 
L 77 1088 
L 1875 1088 
L 1875 0 
L 2368 0 
L 2368 1088 
L 3021 1088 
L 3021 1497 
z
M 1869 1497 
L 333 1497 
L 1869 3697 
L 1869 1497 
z
" transform="scale(0.015625)"/>
       </defs>
       <use xlink:href="#NimbusRomNo9L-Regu-34" transform="scale(0.996264)"/>
       <use xlink:href="#NimbusRomNo9L-Regu-30" transform="translate(49.8132 0) scale(0.996264)"/>
      </g>
     </g>
    </g>
    <g id="text_6">
     <!-- $t$ -->
     <g transform="translate(365.813984 500.670179) scale(0.21 -0.21)">
      <defs>
       <path id="NimbusRomNo9L-ReguItal-74" d="M 1894 2752 
L 1382 2752 
L 1562 3411 
C 1568 3424 1568 3436 1568 3443 
C 1568 3488 1549 3507 1517 3507 
C 1478 3507 1459 3500 1421 3449 
C 1171 3123 774 2803 570 2745 
C 410 2694 365 2655 365 2585 
C 365 2579 365 2566 371 2547 
L 845 2547 
L 384 782 
C 371 724 365 705 346 647 
C 288 454 237 230 237 179 
C 237 38 371 -64 544 -64 
C 838 -64 1050 115 1453 711 
L 1370 756 
C 1056 352 954 249 851 249 
C 794 249 755 300 755 377 
C 755 384 755 390 762 410 
L 1325 2547 
L 1862 2547 
L 1894 2752 
z
" transform="scale(0.015625)"/>
      </defs>
      <use xlink:href="#NimbusRomNo9L-ReguItal-74" transform="scale(0.996264)"/>
     </g>
    </g>
   </g>
   <g id="matplotlib.axis_2">
    <g id="ytick_1">
     <g id="line2d_6">
      <defs>
       <path id="mcbbc28e6e3" d="M 0 0 
L 5 0 
" style="stroke: #000000; stroke-width: 1.2"/>
      </defs>
      <g>
       <use xlink:href="#mcbbc28e6e3" x="73.528563" y="430.726981" style="stroke: #000000; stroke-width: 1.2"/>
      </g>
     </g>
     <g id="text_7">
      <!-- $\mathdefault{0.00}$ -->
      <g transform="translate(35.121544 437.481558) scale(0.2 -0.2)">
       <defs>
        <path id="CMMI10-3a" d="M 1229 339 
C 1229 524 1075 678 890 678 
C 704 678 550 524 550 339 
C 550 153 704 0 890 0 
C 1075 0 1229 153 1229 339 
z
" transform="scale(0.015625)"/>
       </defs>
       <use xlink:href="#NimbusRomNo9L-Regu-30" transform="scale(0.996264)"/>
       <use xlink:href="#CMMI10-3a" transform="translate(49.8132 0) scale(0.996264)"/>
       <use xlink:href="#NimbusRomNo9L-Regu-30" transform="translate(77.408707 0) scale(0.996264)"/>
       <use xlink:href="#NimbusRomNo9L-Regu-30" transform="translate(127.221908 0) scale(0.996264)"/>
      </g>
     </g>
    </g>
    <g id="ytick_2">
     <g id="line2d_7">
      <g>
       <use xlink:href="#mcbbc28e6e3" x="73.528563" y="343.262267" style="stroke: #000000; stroke-width: 1.2"/>
      </g>
     </g>
     <g id="text_8">
      <!-- $\mathdefault{0.01}$ -->
      <g transform="translate(35.121544 350.016845) scale(0.2 -0.2)">
       <use xlink:href="#NimbusRomNo9L-Regu-30" transform="scale(0.996264)"/>
       <use xlink:href="#CMMI10-3a" transform="translate(49.8132 0) scale(0.996264)"/>
       <use xlink:href="#NimbusRomNo9L-Regu-30" transform="translate(77.408707 0) scale(0.996264)"/>
       <use xlink:href="#NimbusRomNo9L-Regu-31" transform="translate(127.221908 0) scale(0.996264)"/>
      </g>
     </g>
    </g>
    <g id="ytick_3">
     <g id="line2d_8">
      <g>
       <use xlink:href="#mcbbc28e6e3" x="73.528563" y="255.797554" style="stroke: #000000; stroke-width: 1.2"/>
      </g>
     </g>
     <g id="text_9">
      <!-- $\mathdefault{0.02}$ -->
      <g transform="translate(35.121544 262.552131) scale(0.2 -0.2)">
       <use xlink:href="#NimbusRomNo9L-Regu-30" transform="scale(0.996264)"/>
       <use xlink:href="#CMMI10-3a" transform="translate(49.8132 0) scale(0.996264)"/>
       <use xlink:href="#NimbusRomNo9L-Regu-30" transform="translate(77.408707 0) scale(0.996264)"/>
       <use xlink:href="#NimbusRomNo9L-Regu-32" transform="translate(127.221908 0) scale(0.996264)"/>
      </g>
     </g>
    </g>
    <g id="ytick_4">
     <g id="line2d_9">
      <g>
       <use xlink:href="#mcbbc28e6e3" x="73.528563" y="168.33284" style="stroke: #000000; stroke-width: 1.2"/>
      </g>
     </g>
     <g id="text_10">
      <!-- $\mathdefault{0.03}$ -->
      <g transform="translate(35.121544 175.087418) scale(0.2 -0.2)">
       <use xlink:href="#NimbusRomNo9L-Regu-30" transform="scale(0.996264)"/>
       <use xlink:href="#CMMI10-3a" transform="translate(49.8132 0) scale(0.996264)"/>
       <use xlink:href="#NimbusRomNo9L-Regu-30" transform="translate(77.408707 0) scale(0.996264)"/>
       <use xlink:href="#NimbusRomNo9L-Regu-33" transform="translate(127.221908 0) scale(0.996264)"/>
      </g>
     </g>
    </g>
    <g id="ytick_5">
     <g id="line2d_10">
      <g>
       <use xlink:href="#mcbbc28e6e3" x="73.528563" y="80.868127" style="stroke: #000000; stroke-width: 1.2"/>
      </g>
     </g>
     <g id="text_11">
      <!-- $\mathdefault{0.04}$ -->
      <g transform="translate(35.121544 87.622704) scale(0.2 -0.2)">
       <use xlink:href="#NimbusRomNo9L-Regu-30" transform="scale(0.996264)"/>
       <use xlink:href="#CMMI10-3a" transform="translate(49.8132 0) scale(0.996264)"/>
       <use xlink:href="#NimbusRomNo9L-Regu-30" transform="translate(77.408707 0) scale(0.996264)"/>
       <use xlink:href="#NimbusRomNo9L-Regu-34" transform="translate(127.221908 0) scale(0.996264)"/>
      </g>
     </g>
    </g>
    <g id="text_12">
     <!-- $\lvert y^{\text{com}} (t) - y_{0}\rvert $ -->
     <g transform="translate(22.891158 289.230975) rotate(-90) scale(0.21 -0.21)">
      <defs>
       <path id="CMSY10-6a" d="M 1018 4569 
C 1018 4684 1018 4800 890 4800 
C 762 4800 762 4684 762 4569 
L 762 -1370 
C 762 -1485 762 -1600 890 -1600 
C 1018 -1600 1018 -1485 1018 -1370 
L 1018 4569 
z
" transform="scale(0.015625)"/>
       <path id="NimbusRomNo9L-ReguItal-79" d="M 96 2553 
C 179 2572 224 2579 294 2579 
C 659 2579 755 2419 1050 1318 
C 1158 902 1312 153 1312 44 
C 1312 -58 1274 -161 1178 -276 
C 979 -538 851 -705 781 -782 
C 646 -922 570 -974 486 -974 
C 448 -974 403 -954 333 -903 
C 237 -826 166 -794 96 -794 
C -45 -794 -154 -903 -154 -1044 
C -154 -1204 -13 -1326 173 -1326 
C 582 -1326 1421 -365 2112 902 
C 2547 1689 2726 2150 2726 2463 
C 2726 2655 2566 2816 2374 2816 
C 2227 2816 2125 2719 2125 2579 
C 2125 2483 2176 2412 2304 2329 
C 2426 2259 2470 2201 2470 2111 
C 2470 1855 2234 1356 1690 454 
L 1562 1196 
C 1466 1759 1107 2816 1011 2816 
L 986 2816 
C 979 2809 954 2809 928 2809 
C 870 2803 640 2764 301 2700 
C 269 2694 186 2675 96 2662 
L 96 2553 
z
" transform="scale(0.015625)"/>
       <path id="NimbusRomNo9L-Regu-63" d="M 2547 998 
C 2240 550 2010 396 1645 396 
C 1062 396 653 908 653 1644 
C 653 2303 1005 2758 1523 2758 
C 1754 2758 1837 2687 1901 2451 
L 1939 2310 
C 1990 2131 2106 2015 2240 2015 
C 2406 2015 2547 2137 2547 2284 
C 2547 2643 2099 2944 1562 2944 
C 1248 2944 922 2815 659 2585 
C 339 2303 160 1868 160 1363 
C 160 531 666 -64 1376 -64 
C 1664 -64 1920 38 2150 236 
C 2323 390 2445 563 2637 940 
L 2547 998 
z
" transform="scale(0.015625)"/>
       <path id="NimbusRomNo9L-Regu-6f" d="M 1600 2944 
C 768 2944 186 2329 186 1446 
C 186 582 781 -64 1587 -64 
C 2394 -64 3008 614 3008 1497 
C 3008 2336 2419 2944 1600 2944 
z
M 1517 2764 
C 2054 2764 2432 2150 2432 1273 
C 2432 550 2144 115 1664 115 
C 1414 115 1178 268 1043 524 
C 864 857 762 1305 762 1760 
C 762 2368 1062 2764 1517 2764 
z
" transform="scale(0.015625)"/>
       <path id="NimbusRomNo9L-Regu-6d" d="M 122 2547 
C 205 2566 256 2572 326 2572 
C 493 2572 550 2470 550 2163 
L 550 544 
C 550 198 461 102 102 96 
L 102 0 
L 1523 0 
L 1523 96 
C 1184 108 1088 179 1088 428 
L 1088 2233 
C 1088 2246 1139 2310 1184 2355 
C 1344 2502 1619 2611 1843 2611 
C 2125 2611 2266 2387 2266 1939 
L 2266 550 
C 2266 192 2195 121 1830 96 
L 1830 0 
L 3264 0 
L 3264 96 
C 2899 102 2803 211 2803 608 
L 2803 2220 
C 2995 2496 3206 2611 3501 2611 
C 3866 2611 3981 2438 3981 1907 
L 3981 556 
C 3981 192 3930 140 3558 96 
L 3558 0 
L 4960 0 
L 4960 96 
L 4794 108 
C 4602 121 4518 236 4518 486 
L 4518 1804 
C 4518 2560 4269 2944 3776 2944 
C 3405 2944 3078 2777 2733 2406 
C 2618 2771 2400 2944 2054 2944 
C 1773 2944 1594 2854 1062 2451 
L 1062 2931 
L 1018 2944 
C 691 2822 474 2751 122 2655 
L 122 2547 
z
" transform="scale(0.015625)"/>
       <path id="CMR10-28" d="M 2118 -1536 
C 2118 -1517 2118 -1504 2010 -1396 
C 1210 -589 1005 620 1005 1600 
C 1005 2713 1248 3827 2035 4627 
C 2118 4704 2118 4716 2118 4736 
C 2118 4780 2093 4800 2054 4800 
C 1990 4800 1414 4365 1037 3552 
C 710 2848 634 2137 634 1600 
C 634 1100 704 326 1056 -397 
C 1440 -1184 1990 -1600 2054 -1600 
C 2093 -1600 2118 -1581 2118 -1536 
z
" transform="scale(0.015625)"/>
       <path id="CMR10-29" d="M 1850 1600 
C 1850 2099 1779 2873 1427 3597 
C 1043 4384 493 4800 429 4800 
C 390 4800 365 4774 365 4736 
C 365 4716 365 4704 486 4589 
C 1114 3955 1478 2937 1478 1600 
C 1478 505 1242 -621 448 -1428 
C 365 -1504 365 -1517 365 -1536 
C 365 -1575 390 -1600 429 -1600 
C 493 -1600 1069 -1165 1446 -352 
C 1773 352 1850 1062 1850 1600 
z
" transform="scale(0.015625)"/>
       <path id="CMSY10-0" d="M 4218 1472 
C 4326 1472 4442 1472 4442 1600 
C 4442 1728 4326 1728 4218 1728 
L 755 1728 
C 646 1728 531 1728 531 1600 
C 531 1472 646 1472 755 1472 
L 4218 1472 
z
" transform="scale(0.015625)"/>
      </defs>
      <use xlink:href="#CMSY10-6a" transform="scale(0.996264)"/>
      <use xlink:href="#NimbusRomNo9L-ReguItal-79" transform="translate(27.595507 0) scale(0.996264)"/>
      <use xlink:href="#NimbusRomNo9L-Regu-63" transform="translate(71.829075 36.163231) scale(0.737241)"/>
      <use xlink:href="#NimbusRomNo9L-Regu-6f" transform="translate(104.562161 36.163231) scale(0.737241)"/>
      <use xlink:href="#NimbusRomNo9L-Regu-6d" transform="translate(141.424203 36.163231) scale(0.737241)"/>
      <use xlink:href="#CMR10-28" transform="translate(199.278949 0) scale(0.996264)"/>
      <use xlink:href="#NimbusRomNo9L-ReguItal-74" transform="translate(235.442165 0) scale(0.996264)"/>
      <use xlink:href="#CMR10-29" transform="translate(269.911158 0) scale(0.996264)"/>
      <use xlink:href="#CMSY10-0" transform="translate(322.40197 0) scale(0.996264)"/>
      <use xlink:href="#NimbusRomNo9L-ReguItal-79" transform="translate(413.647643 0) scale(0.996264)"/>
      <use xlink:href="#NimbusRomNo9L-Regu-30" transform="translate(457.881212 -15.050129) scale(0.737241)"/>
      <use xlink:href="#CMSY10-6a" transform="translate(495.241386 0) scale(0.996264)"/>
     </g>
    </g>
   </g>
   <g id="line2d_11">
    <path d="M 87.866528 350.660366 
L 89.693916 350.59225 
L 101.220516 349.836673 
L 121.181213 348.335229 
L 139.173954 346.76492 
L 155.058171 345.159178 
L 168.974431 343.533943 
L 181.344441 341.870676 
L 192.449336 340.156215 
L 202.289116 338.418204 
L 211.285487 336.605576 
L 219.297879 334.76943 
L 226.60743 332.87076 
L 233.21414 330.930899 
L 239.258576 328.930335 
L 244.881308 326.835207 
L 249.941766 324.717357 
L 254.58052 322.544411 
L 258.938137 320.262432 
L 263.014617 317.876426 
L 266.809961 315.395647 
L 270.324168 312.834671 
L 273.697807 310.094157 
L 276.79031 307.29664 
L 279.742244 304.327821 
L 282.553609 301.184294 
L 285.224407 297.866383 
L 287.754636 294.379586 
L 290.284865 290.510374 
L 292.674526 286.458997 
L 295.064187 281.977951 
L 297.453848 277.030081 
L 299.984077 271.259654 
L 302.654875 264.595034 
L 306.028514 255.513724 
L 311.791814 239.881472 
L 314.040906 234.495245 
L 315.868294 230.660143 
L 317.555114 227.608797 
L 319.101365 225.231503 
L 320.647616 223.237266 
L 322.193867 221.591071 
L 323.740118 220.24803 
L 325.426938 219.071295 
L 327.254326 218.065855 
L 329.36285 217.162339 
L 332.033647 216.274703 
L 336.250696 215.145099 
L 343.419679 213.218158 
L 348.199001 211.678368 
L 353.259459 209.802099 
L 359.303896 207.311962 
L 368.159698 203.399254 
L 379.124024 198.323718 
L 385.590166 195.106179 
L 390.369488 192.486928 
L 394.3054 190.075529 
L 397.679039 187.74507 
L 400.630973 185.438658 
L 403.30177 183.07733 
L 405.831999 180.543175 
L 408.22166 177.832497 
L 410.611321 174.768638 
L 413.000982 171.331602 
L 415.952916 166.654053 
L 419.888828 160.42844 
L 421.716216 157.981693 
L 424.808719 154.02171 
L 425.792697 152.235403 
L 426.636106 150.251439 
L 427.620084 147.317877 
L 428.744631 143.18228 
L 430.290882 136.526095 
L 434.648499 117.236037 
L 436.475887 110.328169 
L 438.303274 104.291982 
L 440.130662 99.050158 
L 441.95805 94.499736 
L 443.785438 90.541096 
L 445.612825 87.086776 
L 447.580781 83.845986 
L 449.548738 81.027206 
L 451.657262 78.40331 
L 453.765786 76.126507 
L 456.014879 74.020987 
L 458.40454 72.091718 
L 460.934769 70.338529 
L 463.605567 68.757149 
L 466.557501 67.275188 
L 469.790571 65.914137 
L 473.304778 64.685778 
L 477.240691 63.557383 
L 481.598308 62.547371 
L 486.518198 61.639864 
L 492.140929 60.830822 
L 498.747639 60.108362 
L 506.619463 59.475704 
L 516.318675 58.927186 
L 528.548116 58.46771 
L 544.71347 58.094605 
L 567.485533 57.807215 
L 602.908742 57.604577 
L 649.85855 57.503517 
L 649.85855 57.503517 
" clip-path="url(#p133de35458)" style="fill: none; stroke: #314cb6; stroke-width: 2.5; stroke-linecap: square"/>
   </g>
   <g id="patch_3">
    <path d="M 73.528563 460.662751 
L 73.528563 7.2 
" style="fill: none; stroke: #000000; stroke-width: 0.8; stroke-linejoin: miter; stroke-linecap: square"/>
   </g>
   <g id="patch_4">
    <path d="M 663.915379 460.662751 
L 663.915379 7.2 
" style="fill: none; stroke: #000000; stroke-width: 0.8; stroke-linejoin: miter; stroke-linecap: square"/>
   </g>
   <g id="patch_5">
    <path d="M 73.528563 460.662751 
L 663.915379 460.662751 
" style="fill: none; stroke: #000000; stroke-width: 0.8; stroke-linejoin: miter; stroke-linecap: square"/>
   </g>
   <g id="patch_6">
    <path d="M 73.528563 7.2 
L 663.915379 7.2 
" style="fill: none; stroke: #000000; stroke-width: 0.8; stroke-linejoin: miter; stroke-linecap: square"/>
   </g>
   <g id="text_13">
    <!-- \textbf{I} -->
    <g transform="translate(194.818916 37.13577) scale(0.21 -0.21)">
     <defs>
      <path id="NimbusRomNo9L-Medi-49" d="M 723 617 
C 723 295 608 205 128 160 
L 128 0 
L 2368 0 
L 2368 160 
C 1882 192 1760 282 1760 617 
L 1760 3734 
C 1760 4069 1894 4172 2368 4191 
L 2368 4352 
L 128 4352 
L 128 4191 
C 589 4159 723 4062 723 3734 
L 723 617 
z
" transform="scale(0.015625)"/>
     </defs>
     <use xlink:href="#NimbusRomNo9L-Medi-49" transform="scale(0.996264)"/>
    </g>
   </g>
   <g id="text_14">
    <!-- \textbf{II} -->
    <g transform="translate(367.798237 37.13577) scale(0.21 -0.21)">
     <use xlink:href="#NimbusRomNo9L-Medi-49" transform="scale(0.996264)"/>
     <use xlink:href="#NimbusRomNo9L-Medi-49" transform="translate(38.753706 0) scale(0.996264)"/>
    </g>
   </g>
   <g id="text_15">
    <!-- \textbf{III} -->
    <g transform="translate(539.090738 37.13577) scale(0.21 -0.21)">
     <use xlink:href="#NimbusRomNo9L-Medi-49" transform="scale(0.996264)"/>
     <use xlink:href="#NimbusRomNo9L-Medi-49" transform="translate(38.753706 0) scale(0.996264)"/>
     <use xlink:href="#NimbusRomNo9L-Medi-49" transform="translate(77.507412 0) scale(0.996264)"/>
    </g>
   </g>
  </g>
  <g id="axes_2">
   <g id="patch_7">
    <path d="M 59.471734 460.662751 
L 59.471734 7.2 
L 313.056928 7.2 
L 313.056928 460.662751 
z
" clip-path="url(#p133de35458)" style="fill: #edeec9; opacity: 0.3; stroke: #edeec9; stroke-linejoin: miter"/>
   </g>
   <g id="patch_8">
    <path d="M 313.056928 460.662751 
L 313.056928 7.2 
L 428.604062 7.2 
L 428.604062 460.662751 
z
" clip-path="url(#p133de35458)" style="fill: #93827f; opacity: 0.3; stroke: #93827f; stroke-linejoin: miter"/>
   </g>
   <g id="patch_9">
    <path d="M 428.604062 460.662751 
L 428.604062 7.2 
L 832.597327 7.2 
L 832.597327 460.662751 
z
" clip-path="url(#p133de35458)" style="fill: #558b6e; opacity: 0.3; stroke: #558b6e; stroke-linejoin: miter"/>
   </g>
   <g id="matplotlib.axis_3">
    <g id="ytick_6">
     <g id="line2d_12">
      <defs>
       <path id="mb39aecb7ca" d="M 0 0 
L -5 0 
" style="stroke: #000000; stroke-width: 1.2"/>
      </defs>
      <g>
       <use xlink:href="#mb39aecb7ca" x="663.915379" y="430.689499" style="stroke: #000000; stroke-width: 1.2"/>
      </g>
     </g>
     <g id="text_16">
      <!-- $\mathdefault{0.0}$ -->
      <g transform="translate(666.915379 437.444077) scale(0.2 -0.2)">
       <use xlink:href="#NimbusRomNo9L-Regu-30" transform="scale(0.996264)"/>
       <use xlink:href="#CMMI10-3a" transform="translate(49.8132 0) scale(0.996264)"/>
       <use xlink:href="#NimbusRomNo9L-Regu-30" transform="translate(77.408707 0) scale(0.996264)"/>
      </g>
     </g>
    </g>
    <g id="ytick_7">
     <g id="line2d_13">
      <g>
       <use xlink:href="#mb39aecb7ca" x="663.915379" y="355.726884" style="stroke: #000000; stroke-width: 1.2"/>
      </g>
     </g>
     <g id="text_17">
      <!-- $\mathdefault{0.2}$ -->
      <g transform="translate(666.915379 362.481462) scale(0.2 -0.2)">
       <use xlink:href="#NimbusRomNo9L-Regu-30" transform="scale(0.996264)"/>
       <use xlink:href="#CMMI10-3a" transform="translate(49.8132 0) scale(0.996264)"/>
       <use xlink:href="#NimbusRomNo9L-Regu-32" transform="translate(77.408707 0) scale(0.996264)"/>
      </g>
     </g>
    </g>
    <g id="ytick_8">
     <g id="line2d_14">
      <g>
       <use xlink:href="#mb39aecb7ca" x="663.915379" y="280.764269" style="stroke: #000000; stroke-width: 1.2"/>
      </g>
     </g>
     <g id="text_18">
      <!-- $\mathdefault{0.4}$ -->
      <g transform="translate(666.915379 287.518847) scale(0.2 -0.2)">
       <use xlink:href="#NimbusRomNo9L-Regu-30" transform="scale(0.996264)"/>
       <use xlink:href="#CMMI10-3a" transform="translate(49.8132 0) scale(0.996264)"/>
       <use xlink:href="#NimbusRomNo9L-Regu-34" transform="translate(77.408707 0) scale(0.996264)"/>
      </g>
     </g>
    </g>
    <g id="ytick_9">
     <g id="line2d_15">
      <g>
       <use xlink:href="#mb39aecb7ca" x="663.915379" y="205.801654" style="stroke: #000000; stroke-width: 1.2"/>
      </g>
     </g>
     <g id="text_19">
      <!-- $\mathdefault{0.6}$ -->
      <g transform="translate(666.915379 212.556231) scale(0.2 -0.2)">
       <defs>
        <path id="NimbusRomNo9L-Regu-36" d="M 2854 4390 
C 2125 4326 1754 4204 1286 3878 
C 595 3385 218 2655 218 1801 
C 218 1248 390 688 666 369 
C 909 89 1254 -64 1651 -64 
C 2445 -64 2995 541 2995 1420 
C 2995 2234 2528 2752 1792 2752 
C 1510 2752 1376 2707 973 2463 
C 1146 3430 1862 4121 2867 4288 
L 2854 4390 
z
M 1549 2457 
C 2099 2457 2419 1999 2419 1203 
C 2419 503 2170 115 1722 115 
C 1158 115 813 713 813 1700 
C 813 2024 864 2203 992 2298 
C 1126 2400 1325 2457 1549 2457 
z
" transform="scale(0.015625)"/>
       </defs>
       <use xlink:href="#NimbusRomNo9L-Regu-30" transform="scale(0.996264)"/>
       <use xlink:href="#CMMI10-3a" transform="translate(49.8132 0) scale(0.996264)"/>
       <use xlink:href="#NimbusRomNo9L-Regu-36" transform="translate(77.408707 0) scale(0.996264)"/>
      </g>
     </g>
    </g>
    <g id="ytick_10">
     <g id="line2d_16">
      <g>
       <use xlink:href="#mb39aecb7ca" x="663.915379" y="130.839039" style="stroke: #000000; stroke-width: 1.2"/>
      </g>
     </g>
     <g id="text_20">
      <!-- $\mathdefault{0.8}$ -->
      <g transform="translate(666.915379 137.593616) scale(0.2 -0.2)">
       <defs>
        <path id="NimbusRomNo9L-Regu-38" d="M 1856 2400 
C 2490 2739 2714 3008 2714 3443 
C 2714 3968 2253 4352 1613 4352 
C 915 4352 397 3923 397 3341 
C 397 2924 518 2739 1190 2150 
C 499 1625 358 1427 358 992 
C 358 371 864 -64 1587 -64 
C 2355 -64 2848 358 2848 1017 
C 2848 1510 2630 1824 1856 2400 
z
M 1741 1740 
C 2208 1408 2362 1177 2362 819 
C 2362 403 2074 115 1658 115 
C 1171 115 845 486 845 1043 
C 845 1452 986 1721 1357 2022 
L 1741 1740 
z
M 1670 2515 
C 1101 2886 870 3180 870 3539 
C 870 3910 1158 4172 1562 4172 
C 1997 4172 2272 3891 2272 3449 
C 2272 3084 2093 2796 1728 2553 
C 1696 2534 1696 2534 1670 2515 
z
" transform="scale(0.015625)"/>
       </defs>
       <use xlink:href="#NimbusRomNo9L-Regu-30" transform="scale(0.996264)"/>
       <use xlink:href="#CMMI10-3a" transform="translate(49.8132 0) scale(0.996264)"/>
       <use xlink:href="#NimbusRomNo9L-Regu-38" transform="translate(77.408707 0) scale(0.996264)"/>
      </g>
     </g>
    </g>
    <g id="ytick_11">
     <g id="line2d_17">
      <g>
       <use xlink:href="#mb39aecb7ca" x="663.915379" y="55.876424" style="stroke: #000000; stroke-width: 1.2"/>
      </g>
     </g>
     <g id="text_21">
      <!-- $\mathdefault{1.0}$ -->
      <g transform="translate(666.915379 62.631001) scale(0.2 -0.2)">
       <use xlink:href="#NimbusRomNo9L-Regu-31" transform="scale(0.996264)"/>
       <use xlink:href="#CMMI10-3a" transform="translate(49.8132 0) scale(0.996264)"/>
       <use xlink:href="#NimbusRomNo9L-Regu-30" transform="translate(77.408707 0) scale(0.996264)"/>
      </g>
     </g>
    </g>
    <g id="text_22">
     <!-- $\text{max}\left(\lvert x_{s, y} (t) \rvert \right) $ -->
     <g transform="translate(715.050916 291.989696) rotate(-90) scale(0.21 -0.21)">
      <defs>
       <path id="NimbusRomNo9L-Regu-61" d="M 2829 422 
C 2720 332 2643 300 2547 300 
C 2400 300 2355 390 2355 672 
L 2355 1920 
C 2355 2252 2323 2438 2227 2592 
C 2086 2822 1811 2944 1434 2944 
C 832 2944 358 2630 358 2227 
C 358 2080 486 1952 634 1952 
C 787 1952 922 2080 922 2220 
C 922 2246 915 2278 909 2323 
C 896 2380 890 2432 890 2476 
C 890 2649 1094 2790 1350 2790 
C 1664 2790 1837 2604 1837 2259 
L 1837 1868 
C 851 1472 742 1420 467 1177 
C 326 1049 237 832 237 620 
C 237 217 518 -64 909 -64 
C 1190 -64 1453 70 1843 403 
C 1875 70 1990 -64 2253 -64 
C 2470 -64 2605 12 2829 256 
L 2829 422 
z
M 1837 787 
C 1837 588 1805 531 1670 454 
C 1517 364 1338 307 1203 307 
C 979 307 800 524 800 800 
L 800 825 
C 800 1203 1062 1433 1837 1715 
L 1837 787 
z
" transform="scale(0.015625)"/>
       <path id="NimbusRomNo9L-Regu-78" d="M 1779 0 
L 3066 0 
L 3066 96 
C 2867 96 2739 198 2541 480 
L 1722 1734 
L 2253 2502 
C 2374 2675 2566 2777 2771 2783 
L 2771 2880 
L 1760 2880 
L 1760 2783 
C 1952 2771 2016 2732 2016 2643 
C 2016 2566 1939 2425 1779 2227 
C 1747 2188 1670 2073 1587 1945 
L 1498 2073 
C 1318 2342 1203 2560 1203 2643 
C 1203 2732 1286 2777 1478 2783 
L 1478 2880 
L 154 2880 
L 154 2783 
L 211 2783 
C 403 2783 506 2700 704 2400 
L 1306 1478 
L 576 422 
C 384 160 320 115 109 96 
L 109 0 
L 1037 0 
L 1037 96 
C 858 96 781 128 781 211 
C 781 249 826 345 909 473 
L 1414 1260 
L 1997 364 
C 2022 326 2035 288 2035 249 
C 2035 134 1990 108 1779 96 
L 1779 0 
z
" transform="scale(0.015625)"/>
       <path id="CMEX10-0" d="M 2643 -7360 
C 2643 -7335 2630 -7322 2618 -7303 
C 2323 -6989 1888 -6470 1619 -5426 
C 1472 -4843 1414 -4184 1414 -3588 
C 1414 -1903 1818 -725 2586 108 
C 2643 166 2643 179 2643 192 
C 2643 256 2592 256 2566 256 
C 2470 256 2125 -129 2042 -225 
C 1389 -1000 973 -2153 973 -3581 
C 973 -4491 1133 -5778 1971 -6861 
C 2035 -6938 2451 -7424 2566 -7424 
C 2592 -7424 2643 -7424 2643 -7360 
z
" transform="scale(0.015625)"/>
       <path id="NimbusRomNo9L-ReguItal-78" d="M 2573 714 
C 2522 657 2490 618 2432 542 
C 2285 351 2208 288 2138 288 
C 2042 288 1984 370 1939 548 
C 1926 599 1920 638 1914 657 
C 1754 1299 1683 1592 1683 1687 
C 1965 2177 2195 2457 2310 2457 
C 2349 2457 2400 2438 2464 2406 
C 2541 2362 2586 2349 2637 2349 
C 2771 2349 2861 2444 2861 2579 
C 2861 2713 2752 2816 2598 2816 
C 2317 2816 2074 2585 1632 1904 
L 1562 2254 
C 1472 2687 1402 2816 1229 2816 
C 1088 2816 870 2758 480 2630 
L 410 2604 
L 435 2508 
C 678 2566 736 2579 794 2579 
C 954 2579 992 2521 1082 2139 
L 1267 1357 
L 742 612 
C 614 421 486 307 416 307 
C 378 307 314 326 250 364 
C 166 409 96 428 45 428 
C -77 428 -173 332 -173 204 
C -173 38 -45 -64 147 -64 
C 346 -64 422 -7 742 383 
C 915 587 1050 758 1318 1127 
L 1510 364 
C 1594 38 1677 -64 1882 -64 
C 2125 -64 2291 89 2662 663 
L 2573 714 
z
" transform="scale(0.015625)"/>
       <path id="NimbusRomNo9L-ReguItal-73" d="M 230 953 
L 102 -64 
L 205 -64 
C 256 38 294 70 358 70 
C 429 70 544 44 672 12 
C 813 -45 922 -64 1024 -64 
C 1562 -64 1946 280 1946 764 
C 1946 1006 1811 1286 1510 1656 
C 1267 1955 1165 2152 1165 2324 
C 1165 2534 1299 2668 1523 2668 
C 1856 2668 2048 2432 2112 1936 
L 2214 1936 
L 2342 2816 
L 2253 2816 
C 2202 2726 2150 2700 2061 2700 
C 2016 2700 1952 2713 1830 2745 
C 1670 2803 1574 2816 1472 2816 
C 1005 2816 698 2541 698 2114 
C 698 1910 832 1636 1101 1293 
C 1350 968 1459 745 1459 560 
C 1459 274 1267 70 986 70 
C 634 70 435 331 333 936 
L 230 953 
z
" transform="scale(0.015625)"/>
       <path id="CMMI10-3b" d="M 1299 6 
C 1299 428 1139 678 890 678 
C 678 678 550 518 550 339 
C 550 166 678 0 890 0 
C 966 0 1050 25 1114 83 
C 1133 96 1139 102 1146 102 
C 1152 102 1158 96 1158 6 
C 1158 -460 934 -837 723 -1044 
C 653 -1114 653 -1127 653 -1146 
C 653 -1191 685 -1216 717 -1216 
C 787 -1216 1299 -730 1299 6 
z
" transform="scale(0.015625)"/>
       <path id="CMEX10-1" d="M 1952 -3588 
C 1952 -2678 1792 -1391 954 -308 
C 890 -231 474 256 358 256 
C 326 256 282 243 282 192 
C 282 166 294 147 320 128 
C 627 -206 1043 -725 1306 -1743 
C 1453 -2326 1510 -2986 1510 -3581 
C 1510 -4228 1453 -4882 1286 -5509 
C 1043 -6406 666 -6919 339 -7277 
C 282 -7335 282 -7348 282 -7360 
C 282 -7412 326 -7424 358 -7424 
C 454 -7424 806 -7034 883 -6944 
C 1536 -6169 1952 -5016 1952 -3588 
z
" transform="scale(0.015625)"/>
      </defs>
      <use xlink:href="#NimbusRomNo9L-Regu-6d" transform="scale(0.996264)"/>
      <use xlink:href="#NimbusRomNo9L-Regu-61" transform="translate(77.50837 0) scale(0.996264)"/>
      <use xlink:href="#NimbusRomNo9L-Regu-78" transform="translate(121.741939 0) scale(0.996264)"/>
      <use xlink:href="#CMEX10-0" transform="translate(182.624712 80.747581) scale(0.996264)"/>
      <use xlink:href="#CMSY10-6a" transform="translate(228.253242 0) scale(0.996264)"/>
      <use xlink:href="#NimbusRomNo9L-ReguItal-78" transform="translate(255.848749 0) scale(0.996264)"/>
      <use xlink:href="#NimbusRomNo9L-ReguItal-73" transform="translate(300.082318 -14.943915) scale(0.737241)"/>
      <use xlink:href="#CMMI10-3b" transform="translate(328.760267 -14.943915) scale(0.737241)"/>
      <use xlink:href="#NimbusRomNo9L-ReguItal-79" transform="translate(349.181095 -14.943915) scale(0.737241)"/>
      <use xlink:href="#CMR10-28" transform="translate(382.412313 0) scale(0.996264)"/>
      <use xlink:href="#NimbusRomNo9L-ReguItal-74" transform="translate(418.575529 0) scale(0.996264)"/>
      <use xlink:href="#CMR10-29" transform="translate(453.044522 0) scale(0.996264)"/>
      <use xlink:href="#CMSY10-6a" transform="translate(491.698367 0) scale(0.996264)"/>
      <use xlink:href="#CMEX10-1" transform="translate(519.293874 80.747581) scale(0.996264)"/>
     </g>
    </g>
   </g>
   <g id="line2d_18">
    <path d="M 87.866528 387.325297 
L 88.288233 389.774806 
L 88.850506 391.372028 
L 89.553348 392.589013 
L 90.396758 393.56438 
L 91.380736 394.364434 
L 92.64585 395.097779 
L 94.192101 395.731895 
L 96.160057 396.291052 
L 98.690287 396.76291 
L 101.782789 397.106933 
L 105.718701 397.312728 
L 110.638591 397.335491 
L 116.542459 397.134901 
L 123.570874 396.670633 
L 131.583266 395.917806 
L 140.2985 394.875148 
L 149.154303 393.59414 
L 157.869537 392.111527 
L 166.163066 390.479854 
L 174.03489 388.708834 
L 181.485009 386.806139 
L 188.372855 384.822351 
L 194.838997 382.733782 
L 200.883433 380.552923 
L 206.646733 378.235981 
L 211.988328 375.849444 
L 217.048787 373.343438 
L 221.828108 370.724059 
L 226.326294 368.000343 
L 230.543342 365.184878 
L 234.479254 362.294412 
L 238.274598 359.231698 
L 241.929374 355.989372 
L 245.303013 352.704212 
L 248.536083 349.254887 
L 251.628586 345.640872 
L 254.721088 341.675177 
L 257.673022 337.514266 
L 260.484388 333.16087 
L 263.155186 328.621331 
L 265.825983 323.63147 
L 268.356212 318.428794 
L 270.886441 312.695516 
L 273.276102 306.722309 
L 275.665763 300.126406 
L 277.914856 293.266749 
L 280.163949 285.682837 
L 282.413041 277.269408 
L 284.521566 268.520614 
L 286.63009 258.822305 
L 288.738614 248.048089 
L 290.847139 236.061954 
L 292.955663 222.725588 
L 295.064187 207.91318 
L 297.172712 191.538472 
L 299.421804 172.351458 
L 302.092602 147.552011 
L 308.418175 87.641994 
L 309.964426 75.636109 
L 311.229541 67.555793 
L 312.213519 62.595752 
L 313.056928 59.378003 
L 313.75977 57.472728 
L 314.322043 56.47351 
L 314.884316 55.947704 
L 315.306021 55.864756 
L 318.539092 55.903572 
L 318.960796 55.873249 
L 319.241933 55.912541 
L 319.663638 55.863819 
L 320.085343 55.903058 
L 320.507048 55.862513 
L 320.928753 55.93011 
L 321.350457 55.849504 
L 322.053299 55.883484 
L 322.475004 55.859514 
L 323.037277 55.924849 
L 323.458982 55.839448 
L 323.880687 55.965898 
L 324.021255 56.039927 
L 324.44296 55.849649 
L 324.864665 55.870666 
L 325.28637 56.041205 
L 325.708074 55.845545 
L 326.129779 55.860862 
L 326.692052 55.99822 
L 327.113757 55.828745 
L 327.535462 55.870523 
L 328.097735 56.002251 
L 328.51944 55.823531 
L 328.941145 55.857249 
L 329.503418 56.052728 
L 329.925123 55.832373 
L 330.346828 55.826479 
L 330.768533 56.033067 
L 330.909101 56.148707 
L 331.471374 55.82177 
L 331.893079 55.819126 
L 332.314784 56.030916 
L 332.455352 56.148688 
L 333.298762 55.784163 
L 333.720467 55.904646 
L 334.142172 56.139005 
L 334.563877 55.847011 
L 334.985582 55.777714 
L 335.407286 55.928655 
L 335.828991 56.115667 
L 336.250696 55.82981 
L 336.672401 55.769642 
L 337.094106 55.932443 
L 337.515811 56.122946 
L 337.937516 55.825903 
L 338.35922 55.757862 
L 338.780925 55.915902 
L 339.20263 56.159167 
L 339.624335 55.835364 
L 340.04604 55.744179 
L 340.467745 55.882538 
L 340.88945 56.225541 
L 341.451723 55.792106 
L 341.873428 55.742177 
L 342.295133 55.924381 
L 342.716837 56.158756 
L 343.138542 55.821219 
L 343.560247 55.723331 
L 343.981952 55.861636 
L 344.403657 56.232068 
L 345.106498 55.740546 
L 345.528203 55.744344 
L 345.949908 55.986001 
L 346.231045 56.239102 
L 346.793318 55.772278 
L 347.215023 55.709994 
L 347.636728 55.89015 
L 348.058432 56.219179 
L 348.480137 55.830794 
L 348.901842 55.693538 
L 349.323547 55.803537 
L 349.88582 56.210389 
L 350.307525 55.819853 
L 350.72923 55.684216 
L 351.150935 55.799446 
L 351.713208 56.210345 
L 352.134913 55.813467 
L 352.556618 55.675401 
L 352.978323 55.791975 
L 353.540596 56.216971 
L 353.962301 55.810583 
L 354.384005 55.667066 
L 354.80571 55.782117 
L 355.367984 56.228324 
L 355.789688 55.810254 
L 356.211393 55.659253 
L 356.633098 55.770903 
L 357.195371 56.242484 
L 357.617076 55.811527 
L 358.038781 55.65198 
L 358.460486 55.759314 
L 359.022759 56.257487 
L 359.444464 55.813392 
L 359.866169 55.645186 
L 360.287874 55.748236 
L 360.709579 56.117219 
L 360.850147 56.271302 
L 361.271852 55.81476 
L 361.693557 55.638727 
L 362.115261 55.738461 
L 362.536966 56.108517 
L 362.677535 56.281841 
L 363.099239 55.814484 
L 363.520944 55.632391 
L 363.942649 55.730711 
L 364.364354 56.103873 
L 364.504922 56.287004 
L 364.926627 55.811402 
L 365.348332 55.625957 
L 365.770037 55.7257 
L 366.191742 56.104922 
L 366.33231 56.284739 
L 366.754015 55.804412 
L 367.17572 55.619265 
L 367.597425 55.724206 
L 368.01913 56.113377 
L 368.159698 56.273139 
L 368.581403 55.792561 
L 369.003108 55.612321 
L 369.424812 55.727185 
L 369.987086 56.250544 
L 370.40879 55.775165 
L 370.830495 55.605412 
L 371.2522 55.735889 
L 371.814473 56.215677 
L 372.236178 55.751945 
L 372.657883 55.599251 
L 373.079588 55.752018 
L 373.641861 56.167789 
L 374.063566 55.723178 
L 374.485271 55.595138 
L 374.906976 55.777884 
L 375.328681 56.264772 
L 376.031522 55.622778 
L 376.453227 55.634153 
L 376.874932 55.959512 
L 377.156068 56.234045 
L 377.577773 55.743832 
L 377.999478 55.583474 
L 378.421183 55.746985 
L 378.983456 56.135934 
L 379.405161 55.691801 
L 379.826866 55.583461 
L 380.248571 55.804618 
L 380.670276 56.232576 
L 381.091981 55.731251 
L 381.513685 55.573734 
L 381.93539 55.753709 
L 382.357095 56.263852 
L 382.919368 55.662716 
L 383.341073 55.580592 
L 383.762778 55.841774 
L 384.043915 56.20283 
L 384.184483 56.148845 
L 384.606188 55.680267 
L 385.027893 55.570127 
L 385.309029 55.692514 
L 385.871302 56.184172 
L 386.293007 55.690048 
L 386.714712 55.563 
L 386.995849 55.678847 
L 387.558122 56.19695 
L 387.979827 55.6895 
L 388.401532 55.557996 
L 388.682668 55.675713 
L 389.244941 56.184375 
L 389.666646 55.677248 
L 390.088351 55.555178 
L 390.369488 55.684128 
L 390.931761 56.145075 
L 391.353466 55.653446 
L 391.634602 55.545257 
L 391.915739 55.610178 
L 392.337444 56.026651 
L 392.478012 56.249186 
L 393.180853 55.557206 
L 393.46199 55.564837 
L 393.743127 55.748459 
L 394.164831 56.219687 
L 394.586536 55.671642 
L 394.867673 55.538019 
L 395.148809 55.587133 
L 395.429946 55.816373 
L 395.711083 56.222842 
L 396.554492 55.527835 
L 396.835629 55.632117 
L 397.397902 56.17369 
L 397.819607 55.636059 
L 398.100744 55.522241 
L 398.38188 55.601215 
L 398.803585 56.074841 
L 398.944153 56.230919 
L 399.365858 55.652048 
L 399.646995 55.518124 
L 399.928131 55.582828 
L 400.209268 55.843223 
L 400.490404 56.256557 
L 400.912109 55.654316 
L 401.193246 55.512358 
L 401.474383 55.574949 
L 401.755519 55.839026 
L 402.036656 56.246791 
L 402.458361 55.640853 
L 402.739497 55.504085 
L 403.020634 55.577821 
L 403.30177 55.858823 
L 403.582907 56.200504 
L 404.004612 55.612344 
L 404.285748 55.495104 
L 404.566885 55.594271 
L 404.848021 55.906375 
L 404.98859 56.141081 
L 405.129158 56.119755 
L 405.550863 55.572573 
L 405.831999 55.490205 
L 406.113136 55.629963 
L 406.534841 56.247689 
L 406.956546 55.630881 
L 407.237682 55.484372 
L 407.518819 55.56723 
L 407.799956 55.875507 
L 407.940524 56.112811 
L 408.081092 56.131717 
L 408.502797 55.5618 
L 408.783934 55.48033 
L 409.06507 55.633128 
L 409.486775 56.236176 
L 409.90848 55.595435 
L 410.189616 55.475035 
L 410.470753 55.595138 
L 410.75189 55.950882 
L 410.892458 56.215447 
L 411.454731 55.519997 
L 411.735868 55.496093 
L 412.017004 55.715422 
L 412.298141 56.172275 
L 412.579277 55.823861 
L 412.860414 55.534739 
L 413.141551 55.498363 
L 413.422687 55.708954 
L 413.703824 56.160056 
L 413.844392 56.085143 
L 414.266097 55.549217 
L 414.547233 55.51265 
L 414.82837 55.72498 
L 415.109507 56.178808 
L 415.250075 56.083669 
L 415.67178 55.565238 
L 415.952916 55.541581 
L 416.234053 55.766551 
L 416.515189 56.231617 
L 417.077463 55.585609 
L 417.358599 55.590085 
L 417.639736 55.840583 
L 417.920872 56.272632 
L 418.342577 55.681467 
L 418.623714 55.609976 
L 418.90485 55.785288 
L 419.326555 56.146513 
L 419.74826 55.686282 
L 420.029397 55.698421 
L 420.310533 55.953475 
L 420.59167 56.183069 
L 421.013375 55.738969 
L 421.294511 55.768063 
L 421.575648 56.045399 
L 421.716216 56.273881 
L 422.137921 55.800937 
L 422.419058 55.812767 
L 422.840763 56.175851 
L 423.121899 55.85601 
L 423.403036 55.844911 
L 423.824741 56.039261 
L 424.105877 55.838293 
L 424.387014 55.99252 
L 424.527582 56.089367 
L 424.808719 55.853129 
L 425.230423 55.95196 
L 425.51156 55.895412 
L 425.652128 56.040774 
L 425.933265 55.874252 
L 426.073833 55.9974 
L 426.35497 55.893603 
L 427.479516 55.863473 
L 427.901221 55.854667 
L 428.182358 56.586868 
L 428.463494 58.128591 
L 428.885199 61.78709 
L 429.447472 68.755906 
L 430.290882 82.440971 
L 431.837133 112.443861 
L 434.367362 161.129467 
L 435.913613 186.703295 
L 437.459865 208.665906 
L 439.006116 227.384637 
L 440.552367 243.354144 
L 442.098618 257.04637 
L 443.644869 268.865352 
L 445.331689 280.009752 
L 447.018508 289.661056 
L 448.705328 298.088982 
L 450.532716 306.083842 
L 452.360103 313.103428 
L 454.328059 319.762115 
L 456.296015 325.645018 
L 458.40454 331.232437 
L 460.513064 336.200848 
L 462.762157 340.92905 
L 465.011249 345.160393 
L 467.40091 349.196656 
L 469.93114 353.033598 
L 472.601937 356.671386 
L 475.413303 360.113446 
L 478.365237 363.365516 
L 481.457739 366.434896 
L 484.69081 369.329853 
L 488.064449 372.059192 
L 491.719224 374.729677 
L 495.655137 377.322129 
L 499.872185 379.822763 
L 504.370371 382.222332 
L 509.149692 384.515298 
L 514.350719 386.756542 
L 519.832882 388.876736 
L 525.877319 390.971647 
L 532.34346 392.975713 
L 539.371875 394.921192 
L 547.103131 396.82721 
L 555.537228 398.673918 
L 564.814735 400.473185 
L 574.935652 402.207252 
L 586.181115 403.90412 
L 598.551125 405.542216 
L 612.326817 407.137452 
L 627.648761 408.682488 
L 644.657524 410.170199 
L 649.85855 410.584749 
L 649.85855 410.584749 
" clip-path="url(#p133de35458)" style="fill: none; stroke: #8c1c13; stroke-width: 2; stroke-linecap: square"/>
   </g>
   <g id="LineCollection_1">
    <path d="M 313.056928 513.39952 
L 313.056928 -1 
" clip-path="url(#p133de35458)" style="fill: none; stroke-dasharray: 2.96,1.28; stroke-dashoffset: 0; stroke: #000000; stroke-width: 0.8"/>
   </g>
   <g id="LineCollection_2">
    <path d="M 428.604062 513.39952 
L 428.604062 -1 
" clip-path="url(#p133de35458)" style="fill: none; stroke-dasharray: 2.96,1.28; stroke-dashoffset: 0; stroke: #000000; stroke-width: 0.8"/>
   </g>
   <g id="patch_10">
    <path d="M 73.528563 460.662751 
L 73.528563 7.2 
" style="fill: none; stroke: #000000; stroke-width: 0.8; stroke-linejoin: miter; stroke-linecap: square"/>
   </g>
   <g id="patch_11">
    <path d="M 663.915379 460.662751 
L 663.915379 7.2 
" style="fill: none; stroke: #000000; stroke-width: 0.8; stroke-linejoin: miter; stroke-linecap: square"/>
   </g>
   <g id="patch_12">
    <path d="M 73.528563 460.662751 
L 663.915379 460.662751 
" style="fill: none; stroke: #000000; stroke-width: 0.8; stroke-linejoin: miter; stroke-linecap: square"/>
   </g>
   <g id="patch_13">
    <path d="M 73.528563 7.2 
L 663.915379 7.2 
" style="fill: none; stroke: #000000; stroke-width: 0.8; stroke-linejoin: miter; stroke-linecap: square"/>
   </g>
  </g>
  <g id="axes_3">
   <g id="patch_14">
    <path d="M 109.19976 203.19976 
L 249.19976 203.19976 
L 249.19976 63.19976 
L 109.19976 63.19976 
L 109.19976 203.19976 
z
" style="fill: none; opacity: 0"/>
   </g>
   <g id="Quiver_1">
    <path d="M 163.758584 257.254172 
L 112.895348 257.254172 
L 113.420348 258.304172 
L 108.170348 256.729172 
L 113.420348 255.154172 
L 112.895348 256.204172 
L 163.758584 256.204172 
L 163.758584 257.254172 
" clip-path="url(#p86cddf74d7)" style="fill: #262626; fill-opacity: 0.6"/>
    <path d="M 163.758584 238.72476 
L 125.865936 238.72476 
L 126.390936 239.77476 
L 121.140936 238.19976 
L 126.390936 236.62476 
L 125.865936 237.67476 
L 163.758584 237.67476 
L 163.758584 238.72476 
" clip-path="url(#p86cddf74d7)" style="fill: #262626; fill-opacity: 0.6"/>
    <path d="M 163.758584 220.195348 
L 138.836525 220.195348 
L 139.361525 221.245348 
L 134.111525 219.670348 
L 139.361525 218.095348 
L 138.836525 219.145348 
L 163.758584 219.145348 
L 163.758584 220.195348 
" clip-path="url(#p86cddf74d7)" style="fill: #262626; fill-opacity: 0.6"/>
    <path d="M 163.758584 201.665936 
L 151.807113 201.665936 
L 152.332113 202.715936 
L 147.082113 201.140936 
L 152.332113 199.565936 
L 151.807113 200.615936 
L 163.758584 200.615936 
L 163.758584 201.665936 
" clip-path="url(#p86cddf74d7)" style="fill: #262626; fill-opacity: 0.6"/>
    <path d="M 163.758584 182.982113 
L 163.387995 182.982113 
L 163.758584 183.723289 
L 160.052701 182.611525 
L 163.758584 181.49976 
L 163.387995 182.240936 
L 163.758584 182.240936 
L 163.758584 182.982113 
" clip-path="url(#p86cddf74d7)" style="fill: #262626; fill-opacity: 0.6"/>
    <path d="M 163.758584 163.557113 
L 168.298289 163.557113 
L 167.773289 162.507113 
L 173.023289 164.082113 
L 167.773289 165.657113 
L 168.298289 164.607113 
L 163.758584 164.607113 
L 163.758584 163.557113 
" clip-path="url(#p86cddf74d7)" style="fill: #262626; fill-opacity: 0.6"/>
    <path d="M 163.758584 145.027701 
L 181.268878 145.027701 
L 180.743878 143.977701 
L 185.993878 145.552701 
L 180.743878 147.127701 
L 181.268878 146.077701 
L 163.758584 146.077701 
L 163.758584 145.027701 
" clip-path="url(#p86cddf74d7)" style="fill: #262626; fill-opacity: 0.6"/>
    <path d="M 163.758584 126.498289 
L 194.239466 126.498289 
L 193.714466 125.448289 
L 198.964466 127.023289 
L 193.714466 128.598289 
L 194.239466 127.548289 
L 163.758584 127.548289 
L 163.758584 126.498289 
" clip-path="url(#p86cddf74d7)" style="fill: #262626; fill-opacity: 0.6"/>
    <path d="M 163.758584 107.968878 
L 207.210054 107.968878 
L 206.685054 106.918878 
L 211.935054 108.493878 
L 206.685054 110.068878 
L 207.210054 109.018878 
L 163.758584 109.018878 
L 163.758584 107.968878 
" clip-path="url(#p86cddf74d7)" style="fill: #262626; fill-opacity: 0.6"/>
    <path d="M 163.758584 89.439466 
L 220.180642 89.439466 
L 219.655642 88.389466 
L 224.905642 89.964466 
L 219.655642 91.539466 
L 220.180642 90.489466 
L 163.758584 90.489466 
L 163.758584 89.439466 
" clip-path="url(#p86cddf74d7)" style="fill: #262626; fill-opacity: 0.6"/>
    <path d="M 163.758584 70.910054 
L 233.151231 70.910054 
L 232.626231 69.860054 
L 237.876231 71.435054 
L 232.626231 73.010054 
L 233.151231 71.960054 
L 163.758584 71.960054 
L 163.758584 70.910054 
" clip-path="url(#p86cddf74d7)" style="fill: #262626; fill-opacity: 0.6"/>
   </g>
   <g id="line2d_19">
    <path d="M 128.611187 124.449811 
L 129.601112 124.732189 
L 130.591052 125.014514 
L 131.581023 125.296733 
L 132.571048 125.578759 
L 133.561164 125.860467 
L 134.551414 126.141703 
L 135.541851 126.422277 
L 136.532538 126.701969 
L 137.523545 126.980528 
L 138.514947 127.257676 
L 139.506826 127.533109 
L 140.499271 127.8065 
L 141.492372 128.077501 
L 142.48622 128.345744 
L 143.480911 128.610851 
L 144.476536 128.872427 
L 145.473186 129.130075 
L 146.470946 129.38339 
L 147.469897 129.631968 
L 148.470112 129.875411 
L 149.471658 130.113326 
L 150.474589 130.345332 
L 151.478951 130.571064 
L 152.484779 130.790177 
L 153.492095 131.002345 
L 154.50091 131.207271 
L 155.511222 131.404683 
L 156.523019 131.594342 
L 157.536277 131.77604 
L 158.550959 131.949605 
L 159.567022 132.1149 
L 160.584411 132.271823 
L 161.603066 132.420312 
L 162.622919 132.560338 
L 163.643896 132.691911 
L 164.665922 132.815077 
L 165.688917 132.929913 
L 166.712801 133.036532 
L 167.737493 133.135077 
L 168.762914 133.225717 
L 169.788987 133.308652 
L 170.815637 133.384101 
L 171.842793 133.452309 
L 172.870389 133.513536 
L 173.898361 133.568059 
L 174.926653 133.616167 
L 175.955213 133.658162 
L 176.983993 133.694352 
L 178.012951 133.72505 
L 179.04205 133.750572 
L 180.071257 133.771236 
L 181.100545 133.787355 
L 182.129891 133.799244 
L 183.159274 133.807208 
L 184.188679 133.811547 
L 185.218091 133.812553 
L 186.247503 133.810509 
L 187.276904 133.805686 
L 188.306291 133.798347 
L 189.335659 133.788739 
L 190.365005 133.777099 
L 191.39433 133.763651 
L 192.423632 133.748605 
L 193.452913 133.732157 
L 194.482174 133.714493 
L 195.511416 133.69578 
L 196.540641 133.676178 
L 197.569852 133.65583 
L 198.59905 133.634867 
L 199.628238 133.613409 
L 200.657419 133.591564 
L 201.686592 133.569428 
L 202.715762 133.547085 
L 203.744928 133.524611 
L 204.774093 133.502071 
L 205.803258 133.479521 
L 206.832424 133.457008 
L 207.861591 133.434571 
L 208.89076 133.412242 
L 209.919933 133.390045 
L 210.949109 133.368 
L 211.978288 133.346118 
L 213.007471 133.324408 
L 214.036657 133.302872 
L 215.065847 133.281509 
L 216.095041 133.260315 
L 217.124238 133.239281 
L 218.153438 133.218399 
L 219.18264 133.197654 
L 220.211845 133.177035 
L 221.241053 133.156525 
L 222.270262 133.136111 
L 223.299473 133.115775 
L 224.328685 133.095504 
L 225.357898 133.075283 
L 226.387112 133.055098 
L 227.416326 133.034939 
L 228.445541 133.014795 
L 229.474756 132.99466 
L 230.503971 132.974529 
" clip-path="url(#p86cddf74d7)" style="fill: none; stroke: #000000; stroke-width: 2; stroke-linecap: square"/>
   </g>
   <g id="line2d_20">
    <path d="M 128.611187 124.449811 
" clip-path="url(#p86cddf74d7)" style="fill: none; stroke: #800080; stroke-width: 1.5; stroke-linecap: square"/>
    <defs>
     <path id="m85dae17f5b" d="M 0 4.242641 
L 2.545584 0 
L 0 -4.242641 
L -2.545584 0 
z
" style="stroke: #800080; stroke-linejoin: miter"/>
    </defs>
    <g clip-path="url(#p86cddf74d7)">
     <use xlink:href="#m85dae17f5b" x="128.611187" y="124.449811" style="fill: #800080; stroke: #800080; stroke-linejoin: miter"/>
    </g>
   </g>
   <g id="line2d_21">
    <path d="M 108.170348 256.729172 
L 237.876231 71.435054 
L 237.876231 71.435054 
" clip-path="url(#p86cddf74d7)" style="fill: none; stroke: #262626; stroke-opacity: 0.5; stroke-width: 1.2; stroke-linecap: square"/>
   </g>
   <g id="line2d_22">
    <path d="M 163.758584 201.09976 
L 163.758584 71.59976 
" clip-path="url(#p86cddf74d7)" style="fill: none; stroke: #262626; stroke-opacity: 0.5; stroke-width: 1.2; stroke-linecap: square"/>
   </g>
   <g id="patch_15">
    <path d="M 138.379913 122.724967 
Q 154.066649 114.874842 165.798771 122.85005 
" style="fill: none; stroke: #ff0000; stroke-width: 3; stroke-linecap: round"/>
    <path d="M 163.615085 118.947292 
L 165.798771 122.85005 
L 161.366353 122.255343 
" style="fill: none; stroke: #ff0000; stroke-width: 3; stroke-linecap: round"/>
   </g>
  </g>
  <g id="axes_4">
   <g id="patch_16">
    <path d="M 289.19976 203.19976 
L 429.19976 203.19976 
L 429.19976 63.19976 
L 289.19976 63.19976 
L 289.19976 203.19976 
z
" style="fill: none; opacity: 0"/>
   </g>
   <g id="Quiver_2">
    <path d="M 343.758584 257.254172 
L 292.895348 257.254172 
L 293.420348 258.304172 
L 288.170348 256.729172 
L 293.420348 255.154172 
L 292.895348 256.204172 
L 343.758584 256.204172 
L 343.758584 257.254172 
" clip-path="url(#pa4853c8488)" style="fill: #262626; fill-opacity: 0.6"/>
    <path d="M 343.758584 238.72476 
L 305.865936 238.72476 
L 306.390936 239.77476 
L 301.140936 238.19976 
L 306.390936 236.62476 
L 305.865936 237.67476 
L 343.758584 237.67476 
L 343.758584 238.72476 
" clip-path="url(#pa4853c8488)" style="fill: #262626; fill-opacity: 0.6"/>
    <path d="M 343.758584 220.195348 
L 318.836525 220.195348 
L 319.361525 221.245348 
L 314.111525 219.670348 
L 319.361525 218.095348 
L 318.836525 219.145348 
L 343.758584 219.145348 
L 343.758584 220.195348 
" clip-path="url(#pa4853c8488)" style="fill: #262626; fill-opacity: 0.6"/>
    <path d="M 343.758584 201.665936 
L 331.807113 201.665936 
L 332.332113 202.715936 
L 327.082113 201.140936 
L 332.332113 199.565936 
L 331.807113 200.615936 
L 343.758584 200.615936 
L 343.758584 201.665936 
" clip-path="url(#pa4853c8488)" style="fill: #262626; fill-opacity: 0.6"/>
    <path d="M 343.758584 182.982113 
L 343.387995 182.982113 
L 343.758584 183.723289 
L 340.052701 182.611525 
L 343.758584 181.49976 
L 343.387995 182.240936 
L 343.758584 182.240936 
L 343.758584 182.982113 
" clip-path="url(#pa4853c8488)" style="fill: #262626; fill-opacity: 0.6"/>
    <path d="M 343.758584 163.557113 
L 348.298289 163.557113 
L 347.773289 162.507113 
L 353.023289 164.082113 
L 347.773289 165.657113 
L 348.298289 164.607113 
L 343.758584 164.607113 
L 343.758584 163.557113 
" clip-path="url(#pa4853c8488)" style="fill: #262626; fill-opacity: 0.6"/>
    <path d="M 343.758584 145.027701 
L 361.268878 145.027701 
L 360.743878 143.977701 
L 365.993878 145.552701 
L 360.743878 147.127701 
L 361.268878 146.077701 
L 343.758584 146.077701 
L 343.758584 145.027701 
" clip-path="url(#pa4853c8488)" style="fill: #262626; fill-opacity: 0.6"/>
    <path d="M 343.758584 126.498289 
L 374.239466 126.498289 
L 373.714466 125.448289 
L 378.964466 127.023289 
L 373.714466 128.598289 
L 374.239466 127.548289 
L 343.758584 127.548289 
L 343.758584 126.498289 
" clip-path="url(#pa4853c8488)" style="fill: #262626; fill-opacity: 0.6"/>
    <path d="M 343.758584 107.968878 
L 387.210054 107.968878 
L 386.685054 106.918878 
L 391.935054 108.493878 
L 386.685054 110.068878 
L 387.210054 109.018878 
L 343.758584 109.018878 
L 343.758584 107.968878 
" clip-path="url(#pa4853c8488)" style="fill: #262626; fill-opacity: 0.6"/>
    <path d="M 343.758584 89.439466 
L 400.180642 89.439466 
L 399.655642 88.389466 
L 404.905642 89.964466 
L 399.655642 91.539466 
L 400.180642 90.489466 
L 343.758584 90.489466 
L 343.758584 89.439466 
" clip-path="url(#pa4853c8488)" style="fill: #262626; fill-opacity: 0.6"/>
    <path d="M 343.758584 70.910054 
L 413.151231 70.910054 
L 412.626231 69.860054 
L 417.876231 71.435054 
L 412.626231 73.010054 
L 413.151231 71.960054 
L 343.758584 71.960054 
L 343.758584 70.910054 
" clip-path="url(#pa4853c8488)" style="fill: #262626; fill-opacity: 0.6"/>
   </g>
   <g id="line2d_23">
    <path d="M 357.990737 109.710479 
L 357.103301 110.232164 
L 356.215986 110.754053 
L 355.328912 111.276349 
L 354.44228 111.799393 
L 353.556372 112.323662 
L 352.67156 112.849774 
L 351.788301 113.378488 
L 350.907153 113.910713 
L 350.02878 114.447502 
L 349.15396 114.990066 
L 348.283606 115.539769 
L 347.41878 116.098133 
L 346.560716 116.666843 
L 345.710844 117.24774 
L 344.870829 117.84282 
L 344.0426 118.454224 
L 343.228396 119.084221 
L 342.430818 119.735182 
L 341.652876 120.409545 
L 340.898054 121.10976 
L 340.170365 121.838215 
L 339.474409 122.597145 
L 338.815424 123.388504 
L 338.19932 124.213816 
L 337.632687 125.07399 
L 337.122765 125.969105 
L 336.677358 126.898178 
L 336.304679 127.858912 
L 336.013117 128.847469 
L 335.810903 129.858273 
L 335.705701 130.883897 
L 335.704114 131.915063 
L 335.811171 132.940803 
L 336.029824 133.948791 
L 336.36054 134.925854 
L 336.801052 135.858634 
L 337.346316 136.734322 
L 337.988716 137.541412 
L 338.718493 138.270344 
L 339.524355 138.913987 
L 340.394174 139.467894 
L 341.315704 139.930324 
L 342.277217 140.302057 
L 343.268007 140.586043 
L 344.278729 140.786971 
L 345.301584 140.910799 
L 346.330352 140.964306 
L 347.360316 140.9547 
L 348.388113 140.889296 
L 349.411544 140.775272 
L 350.429361 140.619499 
L 351.441066 140.428421 
L 352.446723 140.207997 
L 353.446793 139.963669 
L 354.442 139.700361 
L 355.433215 139.422494 
L 356.421375 139.134006 
L 357.407416 138.838389 
L 358.392227 138.538714 
L 359.37662 138.237672 
L 360.361311 137.937598 
L 361.346908 137.640506 
L 362.333915 137.348114 
L 363.322727 137.061875 
L 364.313645 136.782997 
L 365.306879 136.512468 
L 366.302559 136.251077 
L 367.300751 135.999433 
L 368.301459 135.757985 
L 369.304644 135.527036 
L 370.310227 135.306762 
L 371.318102 135.097222 
L 372.328141 134.898378 
L 373.340203 134.710102 
L 374.354138 134.532188 
L 375.36979 134.364363 
L 376.387006 134.206299 
L 377.405635 134.057617 
L 378.42553 133.917898 
L 379.446554 133.786687 
L 380.468577 133.663505 
L 381.491477 133.547848 
L 382.515144 133.439199 
L 383.539477 133.337026 
L 384.564385 133.240794 
L 385.589784 133.149964 
L 386.615603 133.064002 
L 387.641775 132.982377 
L 388.668243 132.904571 
L 389.694957 132.83008 
L 390.721872 132.758419 
L 391.748949 132.689128 
L 392.776155 132.621773 
L 393.803461 132.555952 
L 394.830841 132.491302 
L 395.858274 132.427503 
L 396.885742 132.364279 
L 397.913233 132.301412 
L 398.940736 132.238738 
L 399.968245 132.176161 
" clip-path="url(#pa4853c8488)" style="fill: none; stroke: #000000; stroke-width: 2; stroke-linecap: square"/>
   </g>
   <g id="line2d_24">
    <path d="M 357.990737 109.710479 
" clip-path="url(#pa4853c8488)" style="fill: none; stroke: #800080; stroke-width: 1.5; stroke-linecap: square"/>
    <g clip-path="url(#pa4853c8488)">
     <use xlink:href="#m85dae17f5b" x="357.990737" y="109.710479" style="fill: #800080; stroke: #800080; stroke-linejoin: miter"/>
    </g>
   </g>
   <g id="line2d_25">
    <path d="M 288.170348 256.729172 
L 417.876231 71.435054 
L 417.876231 71.435054 
" clip-path="url(#pa4853c8488)" style="fill: none; stroke: #262626; stroke-opacity: 0.5; stroke-width: 1.2; stroke-linecap: square"/>
   </g>
   <g id="line2d_26">
    <path d="M 343.758584 201.09976 
L 343.758584 71.59976 
" clip-path="url(#pa4853c8488)" style="fill: none; stroke: #262626; stroke-opacity: 0.5; stroke-width: 1.2; stroke-linecap: square"/>
   </g>
   <g id="patch_17">
    <path d="M 333.78377 118.544716 
Q 344.273048 110.552885 352.094367 104.593785 
" style="fill: none; stroke: #ff0000; stroke-width: 3; stroke-linecap: round"/>
    <path d="M 347.700553 105.427095 
L 352.094367 104.593785 
L 350.124726 108.608821 
" style="fill: none; stroke: #ff0000; stroke-width: 3; stroke-linecap: round"/>
   </g>
   <g id="patch_18">
    <path d="M 343.370386 144.444483 
Q 324.26274 140.466988 330.057022 125.381706 
" style="fill: none; stroke: #ff0000; stroke-width: 3; stroke-linecap: round"/>
    <path d="M 326.755764 128.398608 
L 330.057022 125.381706 
L 330.489789 129.832853 
" style="fill: none; stroke: #ff0000; stroke-width: 3; stroke-linecap: round"/>
   </g>
   <g id="patch_19">
    <path d="M 373.222731 139.480906 
Q 360.226348 142.979932 350.468739 145.606981 
" style="fill: none; stroke: #ff0000; stroke-width: 3; stroke-linecap: round"/>
    <path d="M 354.851149 146.498318 
L 350.468739 145.606981 
L 353.811255 142.635855 
" style="fill: none; stroke: #ff0000; stroke-width: 3; stroke-linecap: round"/>
   </g>
  </g>
  <g id="axes_5">
   <g id="patch_20">
    <path d="M 484.19976 203.19976 
L 624.19976 203.19976 
L 624.19976 63.19976 
L 484.19976 63.19976 
L 484.19976 203.19976 
z
" style="fill: none; opacity: 0"/>
   </g>
   <g id="Quiver_3">
    <path d="M 533.611525 257.254172 
L 482.748289 257.254172 
L 483.273289 258.304172 
L 478.023289 256.729172 
L 483.273289 255.154172 
L 482.748289 256.204172 
L 533.611525 256.204172 
L 533.611525 257.254172 
" clip-path="url(#pda5bad9f02)" style="fill: #262626; fill-opacity: 0.6"/>
    <path d="M 533.611525 238.72476 
L 495.718878 238.72476 
L 496.243878 239.77476 
L 490.993878 238.19976 
L 496.243878 236.62476 
L 495.718878 237.67476 
L 533.611525 237.67476 
L 533.611525 238.72476 
" clip-path="url(#pda5bad9f02)" style="fill: #262626; fill-opacity: 0.6"/>
    <path d="M 533.611525 220.195348 
L 508.689466 220.195348 
L 509.214466 221.245348 
L 503.964466 219.670348 
L 509.214466 218.095348 
L 508.689466 219.145348 
L 533.611525 219.145348 
L 533.611525 220.195348 
" clip-path="url(#pda5bad9f02)" style="fill: #262626; fill-opacity: 0.6"/>
    <path d="M 533.611525 201.665936 
L 521.660054 201.665936 
L 522.185054 202.715936 
L 516.935054 201.140936 
L 522.185054 199.565936 
L 521.660054 200.615936 
L 533.611525 200.615936 
L 533.611525 201.665936 
" clip-path="url(#pda5bad9f02)" style="fill: #262626; fill-opacity: 0.6"/>
    <path d="M 533.611525 182.982113 
L 533.240936 182.982113 
L 533.611525 183.723289 
L 529.905642 182.611525 
L 533.611525 181.49976 
L 533.240936 182.240936 
L 533.611525 182.240936 
L 533.611525 182.982113 
" clip-path="url(#pda5bad9f02)" style="fill: #262626; fill-opacity: 0.6"/>
    <path d="M 533.611525 163.557113 
L 538.151231 163.557113 
L 537.626231 162.507113 
L 542.876231 164.082113 
L 537.626231 165.657113 
L 538.151231 164.607113 
L 533.611525 164.607113 
L 533.611525 163.557113 
" clip-path="url(#pda5bad9f02)" style="fill: #262626; fill-opacity: 0.6"/>
    <path d="M 533.611525 145.027701 
L 551.121819 145.027701 
L 550.596819 143.977701 
L 555.846819 145.552701 
L 550.596819 147.127701 
L 551.121819 146.077701 
L 533.611525 146.077701 
L 533.611525 145.027701 
" clip-path="url(#pda5bad9f02)" style="fill: #262626; fill-opacity: 0.6"/>
    <path d="M 533.611525 126.498289 
L 564.092407 126.498289 
L 563.567407 125.448289 
L 568.817407 127.023289 
L 563.567407 128.598289 
L 564.092407 127.548289 
L 533.611525 127.548289 
L 533.611525 126.498289 
" clip-path="url(#pda5bad9f02)" style="fill: #262626; fill-opacity: 0.6"/>
    <path d="M 533.611525 107.968878 
L 577.062995 107.968878 
L 576.537995 106.918878 
L 581.787995 108.493878 
L 576.537995 110.068878 
L 577.062995 109.018878 
L 533.611525 109.018878 
L 533.611525 107.968878 
" clip-path="url(#pda5bad9f02)" style="fill: #262626; fill-opacity: 0.6"/>
    <path d="M 533.611525 89.439466 
L 590.033584 89.439466 
L 589.508584 88.389466 
L 594.758584 89.964466 
L 589.508584 91.539466 
L 590.033584 90.489466 
L 533.611525 90.489466 
L 533.611525 89.439466 
" clip-path="url(#pda5bad9f02)" style="fill: #262626; fill-opacity: 0.6"/>
    <path d="M 533.611525 70.910054 
L 603.004172 70.910054 
L 602.479172 69.860054 
L 607.729172 71.435054 
L 602.479172 73.010054 
L 603.004172 71.960054 
L 533.611525 71.960054 
L 533.611525 70.910054 
" clip-path="url(#pda5bad9f02)" style="fill: #262626; fill-opacity: 0.6"/>
   </g>
   <g id="line2d_27">
    <path d="M 601.723721 118.775214 
L 600.70213 118.901865 
L 599.680539 119.028519 
L 598.65895 119.155182 
L 597.637362 119.281861 
L 596.615778 119.408564 
L 595.594198 119.535302 
L 594.572624 119.662088 
L 593.551057 119.788936 
L 592.5295 119.915859 
L 591.507954 120.042872 
L 590.486421 120.169989 
L 589.464902 120.297222 
L 588.4434 120.424585 
L 587.421915 120.55209 
L 586.400449 120.679746 
L 585.379003 120.807564 
L 584.357579 120.93555 
L 583.336176 121.063711 
L 582.314796 121.192049 
L 581.293438 121.320568 
L 580.272103 121.449268 
L 579.250791 121.578148 
L 578.229501 121.707205 
L 577.208233 121.836436 
L 576.186987 121.965836 
L 575.165761 122.0954 
L 574.144556 122.225124 
L 573.123371 122.355004 
L 572.102205 122.485038 
L 571.081059 122.615227 
L 570.059933 122.745574 
L 569.038828 122.876091 
L 568.017748 123.006792 
L 566.996694 123.137704 
L 565.975672 123.26886 
L 564.954687 123.40031 
L 563.933749 123.532117 
L 562.912867 123.664362 
L 561.892055 123.797147 
L 560.871331 123.930601 
L 559.850715 124.06488 
L 558.830233 124.200172 
L 557.809916 124.336704 
L 556.789802 124.474746 
L 555.769936 124.614613 
L 554.750375 124.756676 
L 553.731182 124.901365 
L 552.712438 125.049176 
L 551.694236 125.200678 
L 550.676688 125.356519 
L 549.659931 125.517437 
L 548.644125 125.684263 
L 547.629465 125.857928 
L 546.616183 126.039477 
L 545.604562 126.230068 
L 544.594937 126.430986 
L 543.587714 126.643641 
L 542.583382 126.86958 
L 541.582528 127.110486 
L 540.585854 127.368181 
L 539.594204 127.644622 
L 538.608584 127.941899 
L 537.630192 128.26222 
L 536.660448 128.607902 
L 535.701025 128.981344 
L 534.753884 129.384997 
L 533.821306 129.821327 
L 532.905929 130.292759 
L 532.010767 130.80162 
L 531.139236 131.350059 
L 530.295157 131.939965 
L 529.482746 132.572863 
L 528.706588 133.249815 
L 527.971571 133.971309 
L 527.282806 134.737154 
L 526.645499 135.54639 
L 526.064802 136.397218 
L 525.545629 137.286969 
L 525.092452 138.212111 
L 524.709094 139.168317 
L 524.398521 140.150585 
L 524.162667 141.153412 
L 524.002302 142.171023 
L 523.916949 143.197617 
L 523.904881 144.227638 
L 523.963174 145.256025 
L 524.087832 146.278433 
L 524.273954 147.291391 
L 524.515938 148.292412 
L 524.807699 149.280013 
L 525.142885 150.25368 
L 525.515077 151.21377 
L 525.91797 152.161361 
L 526.345535 153.098072 
L 526.792151 154.025863 
L 527.252741 154.946828 
L 527.722887 155.862997 
L 528.198965 156.77615 
L 528.678279 157.687658 
L 529.15921 158.598344 
" clip-path="url(#pda5bad9f02)" style="fill: none; stroke: #000000; stroke-width: 2; stroke-linecap: square"/>
   </g>
   <g id="line2d_28">
    <path d="M 601.723721 118.775214 
" clip-path="url(#pda5bad9f02)" style="fill: none; stroke: #800080; stroke-width: 1.5; stroke-linecap: square"/>
    <g clip-path="url(#pda5bad9f02)">
     <use xlink:href="#m85dae17f5b" x="601.723721" y="118.775214" style="fill: #800080; stroke: #800080; stroke-linejoin: miter"/>
    </g>
   </g>
   <g id="line2d_29">
    <path d="M 478.023289 256.729172 
L 607.729172 71.435054 
L 607.729172 71.435054 
" clip-path="url(#pda5bad9f02)" style="fill: none; stroke: #262626; stroke-opacity: 0.5; stroke-width: 1.2; stroke-linecap: square"/>
   </g>
   <g id="line2d_30">
    <path d="M 533.611525 201.09976 
L 533.611525 71.59976 
" clip-path="url(#pda5bad9f02)" style="fill: none; stroke: #262626; stroke-opacity: 0.5; stroke-width: 1.2; stroke-linecap: square"/>
   </g>
   <g id="patch_21">
    <path d="M 520.873384 155.741484 
Q 506.061494 151.588942 509.011343 139.928697 
" style="fill: none; stroke: #ff0000; stroke-width: 3; stroke-linecap: round"/>
    <path d="M 506.091399 143.316016 
L 509.011343 139.928697 
L 509.969232 144.297043 
" style="fill: none; stroke: #ff0000; stroke-width: 3; stroke-linecap: round"/>
   </g>
  </g>
 </g>
 <defs>
  <clipPath id="p133de35458">
   <rect x="73.528563" y="7.2" width="590.386816" height="453.462751"/>
  </clipPath>
  <clipPath id="p86cddf74d7">
   <rect x="109.19976" y="63.19976" width="140" height="140"/>
  </clipPath>
  <clipPath id="pa4853c8488">
   <rect x="289.19976" y="63.19976" width="140" height="140"/>
  </clipPath>
  <clipPath id="pda5bad9f02">
   <rect x="484.19976" y="63.19976" width="140" height="140"/>
  </clipPath>
 </defs>
</svg>
